<svg width="30" height="31" viewBox="0 0 30 31" fill="none" xmlns="http://www.w3.org/2000/svg">
<mask id="mask0_26_396" style="mask-type:alpha" maskUnits="userSpaceOnUse" x="0" y="0" width="30" height="31">
<rect x="0.272461" y="0.631836" width="28.8939" height="30.3015" fill="#D9D9D9"/>
</mask>
<g mask="url(#mask0_26_396)">
<path d="M14.7196 22.0954L12.8535 17.7396L8.70003 15.7826L12.8535 13.7941L14.7196 9.46978L16.6158 13.7941L20.7392 15.7826L16.6158 17.7396L14.7196 22.0954ZM14.7196 29.6708C12.5526 29.6708 10.5212 29.1498 8.62539 28.1077C6.72883 27.0666 5.14849 25.6096 3.88439 23.7368V27.1457H1.47656V19.5703H8.70003V22.0954H5.75045C6.77378 23.6736 8.0728 24.9101 9.64751 25.8048C11.223 26.6987 12.9137 27.1457 14.7196 27.1457C17.0271 27.1457 19.1187 26.4513 20.9944 25.0624C22.8709 23.6736 24.1904 21.8324 24.9528 19.5387L27.3005 20.1069C26.3975 22.9687 24.7923 25.2783 22.4848 27.0358C20.1773 28.7925 17.5889 29.6708 14.7196 29.6708ZM1.53676 14.52C1.67721 13.1102 1.99826 11.758 2.49989 10.4634C3.00152 9.16971 3.69377 7.97574 4.57664 6.88152L6.29221 8.68067C5.65012 9.54343 5.12843 10.4638 4.72713 11.4419C4.32582 12.4208 4.07501 13.4469 3.97468 14.52H1.53676ZM7.97769 6.91308L6.26211 5.11393C7.32557 4.18805 8.46928 3.4566 9.69326 2.91959C10.9172 2.38342 12.1914 2.06273 13.5157 1.95752V4.48265C12.4924 4.58786 11.5192 4.8509 10.5962 5.27175C9.6732 5.69261 8.80036 6.23972 7.97769 6.91308ZM21.4916 6.91308C20.6689 6.23972 19.7913 5.69261 18.8586 5.27175C17.9252 4.8509 16.9468 4.58786 15.9235 4.48265V1.95752C17.2679 2.08378 18.5569 2.40994 19.7905 2.93601C21.0249 3.46208 22.1638 4.18805 23.2072 5.11393L21.4916 6.91308ZM25.4946 14.52C25.3943 13.4469 25.1435 12.4208 24.7422 11.4419C24.3409 10.4638 23.8192 9.54343 23.1771 8.68067L24.8927 6.88152C25.7755 7.97574 26.4678 9.16971 26.9694 10.4634C27.471 11.758 27.782 13.1102 27.9024 14.52H25.4946Z" fill="#F2F2F2"/>
</g>
</svg>
