<svg width="36" height="36" viewBox="0 0 36 36" fill="none" xmlns="http://www.w3.org/2000/svg">
<mask id="mask0_26_383" style="mask-type:alpha" maskUnits="userSpaceOnUse" x="0" y="0" width="36" height="36">
<rect width="36" height="36" fill="#D9D9D9"/>
</mask>
<g mask="url(#mask0_26_383)">
<path d="M9 34.499C8.175 34.499 7.469 34.2055 6.882 33.6185C6.294 33.0305 6 32.324 6 31.499V14.999C6 14.174 6.294 13.4675 6.882 12.8795C7.469 12.2925 8.175 11.999 9 11.999H13.5V14.999H9V31.499H27V14.999H22.5V11.999H27C27.825 11.999 28.5315 12.2925 29.1195 12.8795C29.7065 13.4675 30 14.174 30 14.999V31.499C30 32.324 29.7065 33.0305 29.1195 33.6185C28.5315 34.2055 27.825 34.499 27 34.499H9ZM16.5 23.999V7.23652L14.1 9.63652L12 7.49902L18 1.49902L24 7.49902L21.9 9.63652L19.5 7.23652V23.999H16.5Z" fill="#F27852"/>
</g>
</svg>
