<svg width="126" height="127" viewBox="0 0 126 127" fill="none" xmlns="http://www.w3.org/2000/svg">
<path d="M56.4511 1.73385C60.6418 -0.0155606 65.3582 -0.0155627 69.5489 1.73385L101.757 15.179C105.917 16.9159 109.218 20.2343 110.932 24.4045L124.344 57.0375C126.046 61.1778 126.046 65.8222 124.344 69.9625L110.932 102.596C109.218 106.766 105.917 110.084 101.757 111.821L69.5489 125.266C65.3582 127.016 60.6418 127.016 56.4511 125.266L24.2432 111.821C20.0826 110.084 16.7823 106.766 15.0684 102.596L1.6561 69.9625C-0.0455712 65.8222 -0.0455713 61.1778 1.6561 57.0375L15.0684 24.4045C16.7823 20.2344 20.0826 16.9159 24.2432 15.179L56.4511 1.73385Z" fill="#E37E5B"/>
</svg>
