<svg width="76" height="73" viewBox="0 0 76 73" fill="none" xmlns="http://www.w3.org/2000/svg">
<path d="M34.4371 2.98145C35.9217 0.0724409 40.0783 0.0724362 41.5629 2.98144L50.2649 20.0332C50.8461 21.172 51.9368 21.9644 53.1995 22.1653L72.1057 25.1722C75.3311 25.6851 76.6156 29.6383 74.3077 31.9491L60.7797 45.4945C59.8761 46.3992 59.4595 47.6814 59.6587 48.9444L62.6414 67.8544C63.1502 71.0805 59.7875 73.5237 56.8765 72.0428L39.8137 63.3627C38.6741 62.7829 37.3259 62.7829 36.1863 63.3627L19.1235 72.0428C16.2126 73.5237 12.8498 71.0805 13.3586 67.8544L16.3413 48.9444C16.5405 47.6814 16.1239 46.3992 15.2203 45.4945L1.69228 31.9491C-0.615594 29.6383 0.668861 25.6851 3.89424 25.1722L22.8005 22.1653C24.0632 21.9644 25.1539 21.172 25.7351 20.0332L34.4371 2.98145Z" fill="url(#paint0_linear_37_8)"/>
<defs>
<linearGradient id="paint0_linear_37_8" x1="38" y1="-4" x2="38" y2="84" gradientUnits="userSpaceOnUse">
<stop stop-color="#FFBB56" stop-opacity="0"/>
<stop offset="0.875" stop-color="#FFBB56"/>
</linearGradient>
</defs>
</svg>
