<svg width="118" height="116" viewBox="0 0 118 116" fill="none" xmlns="http://www.w3.org/2000/svg">
<path d="M45.5667 10.0851C50.2834 -2.23386 67.7166 -2.23386 72.4333 10.0851C75.1559 17.1961 83.0115 20.9331 90.268 18.6263C102.785 14.647 113.745 28.2009 107.033 39.4905C103.141 46.035 105.069 54.4826 111.415 58.6898C122.374 65.9548 118.444 82.9271 105.422 84.7425C97.8821 85.7936 92.4566 92.5682 93.1073 100.153C94.2316 113.259 78.4842 120.743 68.9081 111.725C63.3625 106.503 54.6375 106.503 49.0919 111.725C39.5158 120.743 23.7684 113.259 24.8927 100.153C25.5434 92.5682 20.1179 85.7936 12.578 84.7425C-0.44426 82.9271 -4.37369 65.9548 6.585 58.6898C12.931 54.4826 14.8588 46.035 10.9675 39.4905C4.25461 28.2009 15.2147 14.647 27.732 18.6263C34.9885 20.9331 42.8441 17.1961 45.5667 10.0851Z" fill="#E37E5B"/>
</svg>
